HIERARCHY
ROOT SpineBase
{
  OFFSET 0.000000 0.000000 0.000000
  CHANNELS 6 Xposition Yposition Zposition Zrotation Xrotation Yrotation
  JOINT SpineMid
  {
    OFFSET 0.000000 29.017701 0.000000
    CHANNELS 3 Zrotation Xrotation Yrotation
    JOINT SpineShoulder
    {
      OFFSET -0.022675 21.503508 -0.564861
      CHANNELS 3 Zrotation Xrotation Yrotation
      JOINT Neck
      {
        OFFSET -0.022104 7.105527 -0.460002
        CHANNELS 3 Zrotation Xrotation Yrotation
        JOINT Head
        {
          OFFSET -1.207399 12.399934 -0.394661
          CHANNELS 3 Zrotation Xrotation Yrotation
          End Site
          {
            OFFSET 0 0 0
          }
        }
      }
      JOINT ShoulderLeft
      {
        OFFSET -16.749799 -2.251742 3.255705
        CHANNELS 3 Zrotation Xrotation Yrotation
        JOINT ElbowLeft
        {
          OFFSET -4.146362 -27.217587 2.520043
          CHANNELS 3 Zrotation Xrotation Yrotation
          JOINT WristLeft
          {
            OFFSET -3.005431 -20.176933 -2.099360
            CHANNELS 3 Zrotation Xrotation Yrotation
            JOINT HandLeft
            {
              OFFSET 1.026101 -6.602078 -1.365005
              CHANNELS 3 Zrotation Xrotation Yrotation
              JOINT HandTipLeft
              {
                OFFSET -0.032065 -7.175452 -0.337086
                CHANNELS 3 Zrotation Xrotation Yrotation
                End Site
                {
                  OFFSET 0 0 0
                }
              }
              JOINT ThumbLeft
              {
                OFFSET -2.452428 -1.912005 -0.695553
                CHANNELS 3 Zrotation Xrotation Yrotation
                End Site
                {
                  OFFSET 0 0 0
                }
              }
            }
          }
        }
      }
      JOINT ShoulderRight
      {
        OFFSET 15.843418 -2.535484 -4.404419
        CHANNELS 3 Zrotation Xrotation Yrotation
        JOINT ElbowRight
        {
          OFFSET 6.764198 -25.596742 -2.557704
          CHANNELS 3 Zrotation Xrotation Yrotation
          JOINT WristRight
          {
            OFFSET 0.920912 -20.829601 -4.481407
            CHANNELS 3 Zrotation Xrotation Yrotation
            JOINT HandRight
            {
              OFFSET -1.704878 -7.667375 -1.281372
              CHANNELS 3 Zrotation Xrotation Yrotation
              JOINT HandTipRight
              {
                OFFSET 0.211535 -6.861063 -1.269876
                CHANNELS 3 Zrotation Xrotation Yrotation
                End Site
                {
                  OFFSET 0 0 0
                }
              }
              JOINT ThumbRight
              {
                OFFSET -3.497450 0.651310 -1.363638
                CHANNELS 3 Zrotation Xrotation Yrotation
                End Site
                {
                  OFFSET 0 0 0
                }
              }
            }
          }
        }
      }
    }
  }
  JOINT HipLeft
  {
    OFFSET -7.482540 0.465458 -1.809174
    CHANNELS 3 Zrotation Xrotation Yrotation
    JOINT KneeLeft
    {
      OFFSET -7.019067 -29.368950 3.556677
      CHANNELS 3 Zrotation Xrotation Yrotation
      JOINT AnkleLeft
      {
        OFFSET -2.268196 -37.439541 8.082274
        CHANNELS 3 Zrotation Xrotation Yrotation
        JOINT FootLeft
        {
          OFFSET -3.145563 -6.803705 -6.554240
          CHANNELS 3 Zrotation Xrotation Yrotation
          End Site
          {
            OFFSET 0 0 0
          }
        }
      }
    }
  }
  JOINT HipRight
  {
    OFFSET 7.008544 0.638449 -4.347732
    CHANNELS 3 Zrotation Xrotation Yrotation
    JOINT KneeRight
    {
      OFFSET 3.100008 -25.354509 2.950456
      CHANNELS 3 Zrotation Xrotation Yrotation
      JOINT AnkleRight
      {
        OFFSET 2.003499 -37.480318 9.394493
        CHANNELS 3 Zrotation Xrotation Yrotation
        JOINT FootRight
        {
          OFFSET -2.075357 -8.172954 -5.038178
          CHANNELS 3 Zrotation Xrotation Yrotation
          End Site
          {
            OFFSET 0 0 0
          }
        }
      }
    }
  }
}
MOTION
Frames: 8
Frame Time: 0.033333
28.296434 73.699204 367.823589 -0.000000 0.000000 9.936290 -0.000000 -0.000000 -9.936290 -0.000000 0.000000 0.000000 -0.000000 0.000000 0.000000 0.000000 0.000000 0.000000 -0.000000 0.000000 0.000000 -0.000000 0.000000 0.000000 -0.000000 0.000000 0.000000 -0.000000 0.000000 0.000000 0.000000 0.000000 0.000000 0.000000 0.000000 0.000000 -0.000000 0.000000 0.000000 -0.000000 0.000000 0.000000 -0.000000 0.000000 0.000000 -0.000000 0.000000 0.000000 0.000000 0.000000 0.000000 0.000000 0.000000 0.000000 -0.000000 -0.000000 -9.936290 -0.000000 0.000000 0.000000 -0.000000 0.000000 0.000000 0.000000 0.000000 0.000000 -0.000000 -0.000000 -9.936290 -0.000000 0.000000 0.000000 -0.000000 0.000000 0.000000 0.000000 0.000000 0.000000
28.292028 73.654657 367.781481 -0.029426 0.055295 9.969463 0.019408 -0.059555 -9.969439 -0.000000 0.000000 0.000000 -0.000000 0.000000 0.000000 0.000000 0.000000 0.000000 -0.000000 0.000000 0.000000 -0.000000 0.000000 0.000000 0.804426 1.788578 0.098701 0.487834 -1.086446 -0.155288 0.000000 0.000000 0.000000 0.000000 0.000000 0.000000 -0.000000 0.000000 0.000000 -0.000000 0.000000 0.000000 -1.567328 -1.801801 0.637703 1.588051 1.783565 -0.687071 0.000000 0.000000 0.000000 0.000000 0.000000 0.000000 0.019408 -0.059555 -9.969439 -0.000000 0.000000 0.000000 0.780616 -5.198123 1.771230 0.000000 0.000000 0.000000 1.111811 -0.075968 -9.821608 -1.950474 -0.498058 -0.388969 0.706649 3.378164 -0.431368 0.000000 0.000000 0.000000
28.286340 73.615325 367.749753 -0.062395 0.102948 10.020368 0.043530 -0.112234 -10.020269 -0.000000 0.000000 0.000000 -0.000000 0.000000 0.000000 0.000000 0.000000 0.000000 -0.000000 0.000000 0.000000 -0.000000 0.000000 0.000000 1.398375 3.277516 0.178993 0.864005 -1.748923 -0.272944 0.000000 0.000000 0.000000 0.000000 0.000000 0.000000 -0.000000 0.000000 0.000000 -0.000000 0.000000 0.000000 -2.880568 -3.237362 1.119111 2.428410 3.873066 -1.130571 0.000000 0.000000 0.000000 0.000000 0.000000 0.000000 0.043530 -0.112234 -10.020269 -0.405451 -0.810853 -0.041200 1.885189 -7.886289 2.965577 0.000000 0.000000 0.000000 1.974047 -0.135732 -9.756580 -3.469796 -0.909644 -0.704740 1.114218 7.209059 -0.937528 0.000000 0.000000 0.000000
28.279371 73.581208 367.728405 -0.098900 0.142941 10.089043 0.072331 -0.158055 -10.088820 -0.000000 0.000000 0.000000 -0.000000 0.000000 0.000000 0.000000 0.000000 0.000000 -0.000000 0.000000 0.000000 -0.000000 0.000000 0.000000 1.781967 4.463459 0.253502 1.110516 -1.985163 -0.376550 0.000000 0.000000 0.000000 0.000000 0.000000 0.000000 -0.822843 0.138785 0.120108 -0.302152 -0.257773 0.114784 -2.906479 -4.250970 1.260253 3.191545 5.219211 -1.511607 0.000000 0.000000 0.000000 0.000000 0.000000 0.000000 0.072331 -0.158055 -10.088820 -0.548549 -1.063136 -0.058964 2.498474 -9.290914 3.438099 0.000000 0.000000 0.000000 2.622753 -0.181598 -9.737527 -4.583360 -1.242376 -0.943687 1.233182 11.429976 -1.496289 0.000000 0.000000 0.000000
28.271120 73.552306 367.717437 -0.138935 0.175261 10.175508 0.105788 -0.197049 -10.175114 -0.000000 0.000000 0.000000 -0.000000 0.000000 0.000000 0.000000 0.000000 0.000000 -0.000000 0.000000 0.000000 -0.000000 0.000000 0.000000 1.956348 5.346374 0.331588 1.212721 -1.798504 -0.481230 0.000000 0.000000 0.000000 0.000000 0.000000 0.000000 -1.085290 0.178189 0.157594 -0.395972 -0.334234 0.150974 -3.567017 -5.113322 1.480010 3.716709 6.263635 -1.782762 0.000000 0.000000 0.000000 0.000000 0.000000 0.000000 0.105788 -0.197049 -10.175114 -0.648848 -1.207029 -0.073586 2.770996 -8.920739 3.149803 0.000000 0.000000 0.000000 3.081866 -0.214678 -9.762016 -5.307915 -1.501562 -1.103088 1.079531 15.952631 -2.084185 0.000000 0.000000 0.000000
28.261587 73.528619 367.716848 -0.182489 0.199900 10.279766 0.143887 -0.229257 -10.279160 -0.000000 0.000000 0.000000 -0.000000 0.000000 0.000000 0.000000 0.000000 0.000000 -0.000000 0.000000 0.000000 0.249673 0.820673 -0.149947 1.658118 5.112110 0.593799 1.160642 -1.196379 -0.592403 0.000000 0.000000 0.000000 0.000000 0.000000 0.000000 -1.339681 0.213826 0.193438 -0.487426 -0.405456 0.186362 -4.152624 -5.773625 1.642008 4.039302 7.046837 -1.953818 0.000000 0.000000 0.000000 0.000000 0.000000 0.000000 0.928332 0.089014 -10.299943 -1.419490 -1.693389 -0.071104 2.716002 -6.783515 2.105389 0.000000 0.000000 0.000000 3.365672 -0.235125 -9.828651 -5.654009 -1.690651 -1.181140 0.673652 20.665540 -2.678872 0.000000 0.000000 0.000000
28.246851 73.513846 367.726325 -0.221219 0.217730 10.458601 0.178022 -0.254268 -10.457785 -0.000000 0.000000 0.000000 -0.000000 0.000000 0.000000 0.000000 0.000000 0.000000 -0.000000 0.000000 0.000000 -0.171093 1.101320 -0.144428 1.441119 5.062944 0.788497 0.525063 1.278274 -0.794642 0.000000 0.000000 0.000000 0.000000 0.000000 0.000000 -1.702456 0.240291 0.238081 -0.450449 -0.481429 0.208115 -4.838591 -6.165385 1.767086 3.470726 7.508971 -1.790062 0.000000 0.000000 0.000000 0.000000 0.000000 0.000000 0.995638 0.091564 -10.483656 -1.404294 -1.607273 -0.063564 3.401954 -4.055404 -0.110951 0.000000 0.000000 0.000000 3.465294 -0.163679 -9.988846 -5.527590 -1.844147 -1.164581 0.637126 26.112126 -3.934246 0.000000 0.000000 0.000000
28.231766 73.505218 367.763296 -0.280889 0.221130 10.647359 0.235199 -0.269218 -10.646265 -0.000000 0.000000 0.000000 0.628121 -0.651620 -0.039858 0.000000 0.000000 0.000000 1.023049 -0.219679 0.130307 -1.529992 1.776998 -0.295484 1.281528 3.247527 0.752461 0.775371 2.661910 -0.688789 0.000000 0.000000 0.000000 0.000000 0.000000 0.000000 -1.976884 0.263333 0.272869 -0.477547 -0.601383 0.230935 -5.639921 -6.686492 1.935928 4.516992 8.335149 -2.121381 0.000000 0.000000 0.000000 0.000000 0.000000 0.000000 1.014263 0.008323 -10.657586 -1.245228 -1.336009 -0.056449 2.817653 -0.553960 -1.506891 0.000000 0.000000 0.000000 3.482866 -0.086196 -10.174455 -4.982371 -2.358561 -1.069143 -0.163227 31.133377 -4.687879 0.000000 0.000000 0.000000
